<svg version="1.1" xmlns="http://www.w3.org/2000/svg" xmlns:xlink="http://www.w3.org/1999/xlink" width="186.41668" height="186.41668" viewBox="0,0,186.41668,186.41668"><g transform="translate(-446.79166,-866.79166)"><g stroke-miterlimit="10"><g stroke="none" stroke-width="0.5" stroke-linecap="butt"><path d="M446.79166,960c0,-51.47747 41.73086,-93.20834 93.20834,-93.20834c51.47747,0 93.20834,41.73086 93.20834,93.20834c0,51.47747 -41.73086,93.20834 -93.20834,93.20834c-51.47747,0 -93.20834,-41.73087 -93.20834,-93.20834z" fill="#fcfcfc"/><path d="M459.79166,960c0,-44.29778 35.91056,-80.20834 80.20834,-80.20834c44.29778,0 80.20834,35.91056 80.20834,80.20834c0,44.29778 -35.91056,80.20834 -80.20834,80.20834c-44.29778,0 -80.20834,-35.91056 -80.20834,-80.20834z" fill="#fcc5ea"/></g><path d="M483.72051,990.006c0,0 21.2962,-44.98244 66.53727,-48.79948c38.87629,-3.28003 57.11496,21.27487 57.11496,21.27487" fill="none" stroke="#ffffff" stroke-width="15" stroke-linecap="round"/><path d="M492.34077,975.87729l6.32223,-47.64379l20.08884,20.6941" fill="none" stroke="#ffffff" stroke-width="15" stroke-linecap="round"/><path d="M550.0298,941.21237l29.81833,-31.69501l11.88563,39.20172" fill="none" stroke="#ffffff" stroke-width="15" stroke-linecap="round"/></g></g></svg>