<svg version="1.1" xmlns="http://www.w3.org/2000/svg" xmlns:xlink="http://www.w3.org/1999/xlink" width="186.41668" height="186.41668" viewBox="0,0,186.41668,186.41668"><g transform="translate(-446.79166,-866.79166)"><g stroke="none" stroke-width="0.5" stroke-miterlimit="10"><g><path d="M446.79166,960c0,-51.47747 41.73086,-93.20834 93.20834,-93.20834c51.47747,0 93.20834,41.73086 93.20834,93.20834c0,51.47747 -41.73086,93.20834 -93.20834,93.20834c-51.47747,0 -93.20834,-41.73087 -93.20834,-93.20834z" fill="#fcfcfc"/><path d="M459.79166,960c0,-44.29778 35.91056,-80.20834 80.20834,-80.20834c44.29778,0 80.20834,35.91056 80.20834,80.20834c0,44.29778 -35.91056,80.20834 -80.20834,80.20834c-44.29778,0 -80.20834,-35.91056 -80.20834,-80.20834z" fill="#fcc5ea"/></g><path d="M491.09072,959.85007c-1.52045,0.01618 -5.27384,1.06545 -6.30619,-0.31102l-2.28099,-3.47128c-2.40981,-0.13482 -4.57257,-2.0254 -6.28951,-3.74234c-1.41422,-1.41422 -0.76784,-4.25959 -1.02522,-6.08691c-0.75169,-5.33671 -1.67936,-10.66549 -2.1627,-16.02589c-0.14328,-1.58899 -0.67737,-5.09292 0.87104,-5.97772l6.46362,-3.6935c1.67313,0.95607 3.90336,1.3588 5.41238,2.47787c2.53741,-0.50932 5.34092,-0.57598 8.18491,-0.48157c-0.74121,-0.55336 -1.51672,-1.24343 -2.34351,-2.07021c-2.05734,-2.05734 0.42137,-15.3094 0.42137,-17.94777c-0.099,-0.48613 -0.15099,-0.98935 -0.15099,-1.50471c0,-4.14214 3.35786,-7.5 7.5,-7.5c0.57693,0 1.13864,0.06514 1.67818,0.18847c1.17558,0.20329 2.3278,0.73825 3.3617,1.67872c0.80213,0.72965 1.37049,1.57299 1.76907,2.48396c0.26584,0.57389 0.46127,1.18705 0.57518,1.82839c0.10485,0.49642 0.17661,1.00262 0.22363,1.51259c0.91288,0.01734 1.89679,0.02587 2.96121,0.00813c4.82498,-0.08042 11.12365,-0.4113 11.12365,7.34901c0,8.25896 -9.13414,7.95671 -15.41727,7.7207c0.03601,1.43833 0.33131,2.93046 -0.92074,4.18252c-1.06912,1.06912 -2.05252,1.90964 -2.98684,2.52155c1.35079,0.07531 2.66044,0.12643 3.90152,0.11911c6.15175,-0.03627 14.30847,-1.50752 14.97038,7.04704c0.5652,7.30455 -5.88584,15.94323 -9.35286,21.79416c-1.11017,1.87351 -3.43972,6.80829 -5.48273,7.36547c-2.55084,0.69568 -4.52722,0.91446 -6.09938,0.55907c-2.26602,0.21113 -4.99427,-0.06222 -8.59891,-0.02385zM499.61877,942.26482c0.48652,-0.80134 0.92199,-1.54407 1.36877,-2.28081c0.37998,-0.62658 1.87006,-1.7608 1.14635,-1.87584c-4.11919,-0.65481 -8.3385,-0.07824 -12.51256,-0.00566c0.21322,2.40868 0.35819,4.68876 0.46091,6.46507c2.71136,-0.22658 5.59085,-0.09773 7.95318,0.02997c0.64518,-0.92699 1.22352,-1.74007 1.58335,-2.33273z" fill="#ffffff"/><g fill="#ffffff"><path d="M542.28557,970.12018c0.12873,0.50506 0.20619,1.03061 0.22653,1.57078c0.13361,1.77759 -0.07811,3.65036 -0.20559,5.25637c-0.48595,6.122 -1.20885,12.32623 -1.29886,18.49078c-0.0473,3.239 1.04889,13.75402 -1.39046,17.13052c-3.35326,4.64152 -10.00928,4.67358 -13.125,0c-2.02134,-3.03201 -0.50879,-7.28386 -0.48454,-10.71211c0.03045,-4.3055 0.09264,-8.32321 0.31182,-12.59741c0.2011,-3.92156 0.67324,-7.83441 0.97244,-11.75358c-1.32126,0.56821 -2.63768,1.10219 -3.93762,1.60153c-1.89694,0.72867 -7.28569,3.27421 -9.16041,2.47076c-6.49934,-2.78543 -7.65993,-5.68692 -4.8745,-12.18626c0.91368,-2.13192 6.84538,-3.56565 8.6649,-4.2643c4.92382,-1.89061 9.59855,-4.70744 14.1761,-7.33895c0.51797,-0.29777 3.71977,-2.88643 6.55891,-4.92452c0.9477,-1.0888 2.20445,-1.90151 3.6336,-2.30148c0.37481,-0.16717 0.65651,-0.23712 0.81215,-0.17909c0.39502,-0.06427 0.8004,-0.09768 1.21358,-0.09768c4.14214,0 7.5,3.35786 7.5,7.5c1.6791,2.38472 -3.99189,7.08105 -5.33731,8.23662c-1.39274,1.19622 -2.88105,2.33708 -4.4385,3.42163c0.07043,0.22107 0.131,0.44684 0.18279,0.67638z"/><path d="M546.69265,974.69592c1.08459,-1.89804 1.45707,-4.51301 2.97108,-5.97872c0.2309,-0.22353 0.48835,-0.42033 0.77892,-0.58378c0.2931,-0.16487 0.6592,-0.31321 1.07687,-0.44712c0.54947,-0.20966 1.12992,-0.35657 1.7326,-0.43198c2.31573,-0.45964 5.14849,-0.67704 6.51777,-0.84677c2.59376,-0.32152 5.19181,-0.54971 7.79287,-0.73065c-0.65713,-1.09449 -1.17731,-2.20865 -1.48901,-2.98789c-0.51793,-1.01902 -0.80989,-2.17222 -0.80989,-3.3936c0,-4.14214 3.35786,-7.5 7.5,-7.5c1.28704,-0.64345 2.74141,-0.00088 4.10755,1.22379c1.28859,0.84505 2.30121,2.07624 2.87339,3.5291c1.10144,1.73684 1.90737,3.51734 2.14696,4.59552c0.14431,0.64938 -0.20472,2.19812 -0.80616,3.77638c5.37471,-0.40797 13.25082,-3.04218 14.88609,5.13416c2.35959,11.79796 -18.18997,9.90059 -24.20374,10.31291c-0.49125,0.03368 -9.42296,0.78321 -10.1597,0.87042c-1.87568,0.22204 -9.8237,2.36904 -11.2221,-0.07815z"/><path d="M566.67739,1013.66926c-0.61918,-0.86293 -1.43717,-1.618 -1.76223,-2.61954c-0.45618,-1.40554 0.9016,-3.75063 1.66042,-4.85806c3.13676,-4.5778 7.06969,-8.65864 10.67253,-12.88264c1.00497,-1.17823 3.37854,-5.54712 4.88511,-5.48765l3.4644,-0.84635c2.32772,2.32772 6.8098,3.8824 7.47354,6.86548c0.06588,0.29609 0.09414,0.60625 0.07895,0.93264c-0.21019,4.51465 -4.94595,8.60295 -7.60898,11.69935c-1.58265,1.8402 -2.96315,3.81786 -4.39252,5.59072c0.82792,-0.1195 1.65463,-0.24573 2.47992,-0.37977c5.67638,-0.92189 15.91197,-4.81681 17.89668,4.11438c1.31486,5.91688 -1.99516,7.38867 -5.69442,8.94838c-6.89395,2.90667 -17.28775,2.77478 -24.62702,3.46711c-2.59162,0.24447 -5.1844,0.47776 -7.77352,0.74745c-3.92744,0.40911 -8.6276,0.58108 -12.50828,1.57984c-0.00125,0.00032 -0.0025,0.00064 -0.00375,0.00097c-0.47814,0.25459 -0.98711,0.45893 -1.51985,0.60597c-0.63673,0.17574 -1.30742,0.26963 -2.00004,0.26963c-4.14214,0 -7.5,-3.35786 -7.5,-7.5c0,-3.28437 2.11115,-6.07565 5.05045,-7.09086c2.0275,-1.06263 4.51935,-1.40417 7.5029,-1.72829c-0.08204,-0.03131 -0.16436,-0.06348 -0.24694,-0.09651c-2.43715,-0.97486 -6.44841,-13.61867 -7.13871,-16.03474c-0.21848,-0.70358 -0.33616,-1.45153 -0.33616,-2.22697c0,-4.14214 3.35786,-7.5 7.5,-7.5c0.38584,0 0.76488,0.02914 1.13503,0.08533c1.44192,0.12943 2.87843,0.75012 4.14476,2.0061c2.72778,2.70547 5.3561,10.8656 6.14335,14.684c0.72724,3.52729 -0.01938,6.36707 -1.78923,8.10072c1.60357,-0.15186 3.20861,-0.29823 4.81363,-0.44668z"/></g></g></g></svg>