<svg version="1.1" xmlns="http://www.w3.org/2000/svg" xmlns:xlink="http://www.w3.org/1999/xlink" width="186.41668" height="186.41668" viewBox="0,0,186.41668,186.41668"><g transform="translate(-446.79166,-866.79166)"><g stroke-miterlimit="10"><g stroke="none" stroke-width="0.5" stroke-linecap="butt"><path d="M446.79166,960c0,-51.47747 41.73086,-93.20834 93.20834,-93.20834c51.47747,0 93.20834,41.73086 93.20834,93.20834c0,51.47747 -41.73086,93.20834 -93.20834,93.20834c-51.47747,0 -93.20834,-41.73087 -93.20834,-93.20834z" fill="#fcfcfc"/><path d="M459.79166,960c0,-44.29778 35.91056,-80.20834 80.20834,-80.20834c44.29778,0 80.20834,35.91056 80.20834,80.20834c0,44.29778 -35.91056,80.20834 -80.20834,80.20834c-44.29778,0 -80.20834,-35.91056 -80.20834,-80.20834z" fill="#fcc5ea"/></g><g><g fill="none" stroke="#ffffff" stroke-width="15" stroke-linecap="round"><path d="M540.49624,977.89482l8.43609,5.21052"/><path d="M539.50376,977.89482l-8.43609,5.21053"/></g><g><path d="M528.70677,944.65594c0,8.56042 -4.02944,15.5 -9,15.5c-4.97056,0 -9,-6.93958 -9,-15.5c0,-8.56042 4.02944,-15.5 9,-15.5c4.97056,0 9,6.93958 9,15.5z" fill="#ffffff" stroke="none" stroke-width="0" stroke-linecap="butt"/><path d="M570.2782,944.65594c0,8.56042 -4.02944,15.5 -9,15.5c-4.97056,0 -9,-6.93958 -9,-15.5c0,-8.56042 4.02944,-15.5 9,-15.5c4.97056,0 9,6.93958 9,15.5z" fill="#ffffff" stroke="none" stroke-width="0" stroke-linecap="butt"/><g fill="none" stroke="#ffffff" stroke-width="15" stroke-linecap="round"><path d="M473.32909,970.20309h22.57895"/><path d="M500.9712,987.28784l-21.29174,7.51472"/><path d="M479.67946,945.10738l21.29174,7.51472"/></g><g fill="none" stroke="#ffffff" stroke-width="15" stroke-linecap="round"><path d="M607.66294,970.2031h-22.57895"/><path d="M580.02083,987.28784l21.29174,7.51472"/><path d="M601.31257,945.10738l-21.29174,7.51472"/></g></g></g></g></g></svg>