<svg version="1.1" xmlns="http://www.w3.org/2000/svg" xmlns:xlink="http://www.w3.org/1999/xlink" width="1080" height="1920" viewBox="0,0,1080,1920"><g stroke-miterlimit="10"><path d="M0,1920v-1920h1080v1920z" fill-opacity="0.50196" fill="#ffffff" stroke="none" stroke-width="0" stroke-linecap="butt"/><path d="M55.15645,1758.5v-1597h969.6871v1597z" fill="#ffffff" stroke="#fcc5ea" stroke-width="15" stroke-linecap="butt"/><g fill="none" stroke="#ffffff" stroke-width="7.5" stroke-linecap="round"><path d="M865.3648,119.28572l5.08895,-4.68778"/><path d="M875.74686,119.74412l-4.82824,-4.95588"/></g><g fill="#ffffff" stroke="#fcc5ea" stroke-width="5" stroke-linecap="butt"><path d="M913.62599,101.20966c0,20.59233 -20.21974,37.28572 -45.16206,37.28572c-24.94232,0 -45.16206,-16.69339 -45.16206,-37.28572c0,-20.59233 20.21974,-37.28571 45.16206,-37.28571c24.94232,0 45.16206,16.69338 45.16206,37.28571z"/><path d="M111.12058,53.36626c-7.11513,2.37171 -9.48683,-4.74341 -9.48683,-4.74341l-0.26475,-1.42872c-2.38183,-2.38184 -2.94795,-5.06616 -4.86049,-7.78274c0,0 -4.16025,-6.24037 2.08012,-10.40062c6.24038,-4.16025 10.40063,2.08012 10.40063,2.08012c1.95001,3.01844 2.68977,5.76753 5.13951,8.21727l1.73525,4.57128c0,0 2.37171,7.11512 -4.74342,9.48683z"/><path d="M111.12058,53.36626c-7.11513,2.37171 -9.48683,-4.74341 -9.48683,-4.74341l-0.26475,-1.42872c-2.38183,-2.38184 -2.94795,-5.06616 -4.86049,-7.78274c0,0 -4.16025,-6.24037 2.08012,-10.40062c6.24038,-4.16025 10.40063,2.08012 10.40063,2.08012c1.95001,3.01844 2.68977,5.76753 5.13951,8.21727l1.73525,4.57128c0,0 2.37171,7.11512 -4.74342,9.48683z"/><path d="M188.24887,129.25113c0,7.5 -7.5,7.5 -7.5,7.5h-1c-1.95501,-0.06765 -3.86476,0.60861 -5.79863,0.90315c-4.1941,0.6388 -8.95325,0.09685 -13.20137,0.09685c-6.78016,0 -14.1947,0.87666 -20.91637,-0.0562c-7.75393,-1.07611 -15.25091,-3.93637 -23,-5c-3.00105,-0.41192 -6.0798,-0.42182 -9.00863,-1.19506c-3.84706,-1.01566 -8.27091,-3.27301 -12.27635,-3.84559c-2.60031,-0.37171 -6.32644,1.02563 -8.79864,0.09685h-4c-4.14213,0 -7.5,-3.35787 -7.5,-7.5c0,-2.64459 1.36877,-4.9695 3.43654,-6.30491l2.90321,-1.93547c1.33486,-0.86236 5.84985,-2.6091 6.85695,-4.06292c3.02273,-3.02273 5.72848,-5.88362 8.37432,-9.28987c0.72773,-0.93687 1.37592,-1.93937 2.08482,-2.89079c-2.31709,-2.15059 -5.02534,-4.29668 -5.55899,-7.31468c-0.63254,-3.57716 0.69755,-6.32674 2.57852,-8.69992c-1.19916,-0.00028 -2.0816,-0.00145 -2.17537,-0.00145c0,0 -7.5,0 -7.5,-7.5c0,-7.5 7.5,-7.5 7.5,-7.5c2.75369,0 5.52583,0.3555 8.26097,0.0365c1.68823,-0.19691 3.3061,-1.13996 5,-1c3.0884,0.25517 7.04129,-0.20606 9.04233,2.1602c5.85786,6.92702 1.20747,12.32914 -2.63739,17.21732c-0.6037,0.76752 -1.30373,1.4507 -2.0177,2.12085c2.20682,1.96215 3.33899,5.51852 3.75495,7.76377c1.24917,6.74269 -0.33885,6.74112 -3.73725,11.11538c-2.7538,3.54456 -5.48128,6.94786 -8.42499,10.22657c2.83223,0.7894 5.64916,1.74905 8.6841,2.61067c2.25667,0.64067 4.67045,0.46386 6.99137,0.80494c7.77422,1.14249 15.24723,3.8387 23,5c6.04383,0.90532 12.95864,-0.0562 19.08363,-0.0562c3.33678,0 7.54496,0.70922 10.79863,0.09685c2.71054,-0.51015 5.44371,-1.0455 8.20137,-1.09685h1c0,0 7.5,0 7.5,7.5z"/><path d="M199.04302,98.65208c-0.46326,-2.59273 -1.01486,-5.13571 -1.38477,-7.73312c-0.83309,-1.08615 -1.40937,-2.58884 -1.40937,-4.66782c0,-7.5 7.5,-7.5 7.5,-7.5l8.5,7.5c-0.30263,5.62047 2.89264,11.25925 2,17c-0.43989,2.829 -0.17226,6.27886 -2.1967,8.3033c-2.02444,2.02444 -5.46759,1.80246 -8.3033,2.1967c-8.85996,1.23176 -18.51624,-1.53885 -27.33986,-2.00771c-2.85485,-0.1517 -5.81494,0.69106 -8.57651,-0.04849c-3.47769,-0.93132 -7.62222,-1.86547 -9.65817,-4.83473c-1.59117,-2.32059 -1.23951,-4.38985 -0.52176,-6.40614c-0.91561,0.73464 -1.86516,1.44186 -2.86155,2.11458c-1.2677,0.8559 -2.7983,1.25777 -4.09916,2.06236c-2.61703,1.61865 -5.23863,3.50312 -8.24774,4.14662l-0.39194,0.7768c0,0 -5.3033,5.3033 -10.6066,0c-5.3033,-5.3033 0,-10.6066 0,-10.6066l3.60806,-3.2232c3.87192,-1.07841 7.33685,-2.924 10.54563,-5.19674c-0.12643,0.02639 -0.25293,0.05228 -0.37952,0.0776c0,0 -7.35435,1.47087 -8.82522,-5.88348c-1.47087,-7.35435 5.88349,-8.82523 5.88349,-8.82523c0.86389,-0.17278 10.25184,-2.06121 10.73184,-2.10914c1.47252,-0.14706 2.97518,-0.20726 4.4904,-0.22006c-1.25137,-2.04338 -1.25137,-4.31644 -1.25137,-4.31644v-2c0,-0.84538 0.0124,-1.6886 0.03525,-2.53001c-2.54566,-0.0947 -5.10087,-0.36168 -7.61888,-0.02619c-1.35928,0.18111 -2.71652,0.41081 -4.07609,0.60983c-1.41541,2.83879 -2.95631,5.56247 -4.59991,8.10662l-2,3c0,0 -4.16025,6.24038 -10.40062,2.08012c-6.24037,-4.16025 -2.08013,-10.40063 -2.08013,-10.40063l2,-3c2.88766,-4.10164 4.35736,-9.3225 6.39857,-13.91217c2.17266,-4.88524 3.57648,-8.81872 4.44385,-14.16057c0,0 1.23299,-7.39795 8.63094,-6.16496c7.39795,1.23299 6.16496,8.63095 6.16496,8.63095c-0.57265,3.36438 -1.39073,6.81904 -2.42105,10.27011c2.57453,-0.00964 5.64653,-0.00554 6.6712,-0.00377c0.45011,-4.80295 0.85929,-9.61401 0.8519,-14.49933c0,0 0,-7.5 7.5,-7.5c7.5,0 7.5,7.5 7.5,7.5c-0.00666,4.8862 -0.41666,9.69845 -0.86367,14.5c3.78789,0 7.57578,0 11.36367,0h2c0,0 7.5,0 7.5,7.5c0,7.5 -7.5,7.5 -7.5,7.5c-4.4726,0 -9.47784,0 -14.46597,0c-0.02207,0.83161 -0.03403,1.66483 -0.03403,2.5v2c0,0 0,2.41175 -1.36763,4.5h0.86763c0,0 7.5,0 7.5,7.5c0,4.34265 -2.51448,6.17081 -4.63156,6.94044c0.63156,1.61866 0.63156,3.05956 0.63156,3.05956c-0.00627,0.65959 0.07242,2.87591 -0.02006,5.17349c0.96305,0.12404 1.93043,0.28577 2.85992,0.33422c6.71577,0.35001 13.36336,1.58028 20.0749,2.00377c0.61237,0.03864 1.24417,-0.02318 1.87939,-0.11053z"/><path d="M281.02494,77.43212c1.81901,7.27607 -5.45706,9.09508 -5.45706,9.09508l-4.1736,1.04121c-1.56828,0.31431 -3.31779,0.5403 -5.10283,0.77992c-0.62728,3.46788 -1.45344,7.0069 -2.3535,10.0399c-1.27308,4.28997 -3.06036,8.292 -3.74527,12.77927c-0.34314,2.24819 0.26705,4.56192 0.0197,6.82265c-0.52362,4.78567 -1.75384,9.79076 -3.2626,14.35787c-0.55813,1.86611 -0.37575,4.14665 -1.6744,5.59834c-2.2924,2.56257 -5.09543,5.58207 -8.5265,5.80476c-7.49843,0.48668 -10.87894,-9.53973 -12.27607,-14.68099l-0.43213,-0.46491c0,0 -3.3541,-6.70821 3.35411,-10.06231c3.34923,-1.67462 5.86237,-0.84095 7.53941,0.41379c0.14111,-0.81956 0.25944,-1.63611 0.35118,-2.44461c0.26975,-2.3772 -0.30458,-4.80697 0.0197,-7.17735c0.74961,-5.47947 2.53105,-10.70255 4.12842,-15.97564c-1.44642,0.23099 -2.88758,0.48164 -4.25059,0.98607c-3.56662,1.31995 -6.93403,3.22625 -10.61501,4.18202c0,0 -7.27607,1.81901 -9.09509,-5.45706c-1.81902,-7.27607 5.45705,-9.09508 5.45705,-9.09508c3.28725,-0.77465 6.20554,-2.67903 9.38499,-3.81798c2.69349,-0.96487 5.79298,-0.58586 8.39987,-1.76481c1.1484,-0.51935 1.98024,-1.63755 3.16403,-2.07024c0.1206,-0.04408 0.24184,-0.08741 0.3637,-0.13c0.00682,-0.22701 0.0203,-0.45369 0.04293,-0.67993c0.16913,-1.69124 0.84484,-3.30742 1,-5c0.19174,-2.09167 -0.28181,-4.22497 0.036,-6.30123c0.07306,-0.47731 0.18095,-0.94698 0.30995,-1.41201c-3.20105,0.00448 -6.60945,-0.59775 -9.68108,-0.14458c-4.10405,0.6055 -7.90072,2.05486 -12.20137,2.09685c0,0 -7.5,0 -7.5,-7.5c0,-7.5 7.5,-7.5 7.5,-7.5c3.57385,0.0577 6.37013,-1.42249 9.79863,-1.90315c4.05864,-0.569 8.23927,0.40893 12.28499,-0.04065c0.47089,-0.05233 0.93819,-0.12623 1.40296,-0.21529c-0.00098,-3.44695 0.01342,-6.89395 0.01342,-10.3409c0,0 0,-7.5 7.5,-7.5c7.5,0 7.5,7.5 7.5,7.5c0,2.08615 0.08454,4.26953 0.17612,6.49063c0.82034,-0.07726 1.62866,-0.17013 2.16363,-0.731l6.16025,-1.25962c0,0 7.5,0 7.5,7.5c0,6.70571 -5.99553,7.41588 -7.26545,7.49109c-0.97658,0.65539 -1.96339,1.28909 -3.06117,1.6871c-1.08188,0.39225 -2.34343,-0.19394 -3.45024,0.12118c-0.86032,0.24494 -1.61035,0.77564 -2.38355,1.24521c-0.44149,2.20734 -1.5673,4.26637 -1.91209,6.49569c-0.29035,1.87731 0.20647,3.8068 0.036,5.69877c-0.02871,0.31869 -0.07607,0.63466 -0.13515,0.94892c0.00875,-0.00174 0.01749,-0.00349 0.02624,-0.00523l3.8264,-0.95879c0,0 7.27607,-1.81901 9.09508,5.45706z"/><path d="M359.36163,56.79176c1.79032,0.19071 6.88725,1.27658 6.88725,7.45937c0,7.5 -7.5,7.5 -7.5,7.5l-3.78543,-0.53642c-2.93284,-1.19546 -5.69622,-2.77191 -8.5097,-4.22621c-1.87279,-0.96805 -4.10708,-1.07194 -6,-2c-0.94173,-0.46171 -1.59492,-1.43476 -2.57499,-1.80827c-0.04944,-0.01884 -0.09914,-0.0367 -0.14907,-0.05366c-2.82132,2.16947 -5.93365,3.94904 -9.40112,5.16696c-5.58783,2.20576 -10.47618,5.16214 -16.20797,7.07274l-3,1c0,0 -7.11512,2.37171 -9.48683,-4.74342c-2.37171,-7.11512 4.74341,-9.48683 4.74341,-9.48683l3,-1c4.55485,-1.51828 8.56851,-3.7111 12.86908,-5.66683c-3.04899,-2.29848 -6.46807,-4.03427 -9.41138,-6.55214c-2.7072,-2.31587 -5.19802,-5.03692 -7.70145,-7.63777c-2.16403,-0.71453 -4.88454,-2.51109 -4.88454,-7.02814c0,-5.89753 4.63745,-7.15761 6.61915,-7.42684c1.1156,-0.31512 2.17462,-0.28233 3.11989,-0.07315c8.92032,0 17.84064,0 26.76096,0c2.36129,0 4.73002,0.24649 7.08362,0.05619c2.31334,-0.18705 4.7654,-1.65076 6.91838,-0.78405c6.97001,2.80587 8.88246,8.35658 6.9271,15.09799c-0.55068,1.89854 -2.72577,2.88562 -3.84478,4.5152c-0.76632,1.11598 -1.01445,2.53137 -1.7668,3.65682c-0.60886,0.91081 -1.23431,1.81303 -1.87812,2.70186c1.59729,0.55526 3.33438,0.77558 4.85574,1.51863c2.1304,1.04052 4.16103,2.29989 6.31762,3.27799zM332.1342,46.16682c0.35655,0.25635 0.73804,0.47904 1.13911,0.67431c1.29256,-1.52607 2.47051,-3.14312 3.55033,-4.72859c-2.47958,-0.11308 -4.97723,-0.36141 -7.07477,-0.36141c-1.14857,0 -2.29715,0 -3.44572,0c1.89619,1.51071 3.83598,2.98134 5.83105,4.41569z"/><path d="M322.37716,142.36626c-7.11512,-2.37171 -4.74341,-9.48684 -4.74341,-9.48684l0.71197,-1.82966c0,-1.17641 0.22244,-2.33456 0.47546,-3.49007c-0.78088,0.04013 -1.55886,0.09115 -2.33327,0.15494c-3.54886,0.29233 -6.9937,1.3485 -10.50604,1.93445c0,0 -7.39796,1.23299 -8.63094,-6.16496c-1.23299,-7.39795 6.16497,-8.63094 6.16497,-8.63094c3.83983,-0.63932 7.61496,-1.73933 11.49396,-2.06555c2.10589,-0.1771 4.23551,-0.26812 6.37754,-0.30497c0.30444,-1.82296 0.62039,-3.63734 0.95833,-5.4329c0.24383,-1.29551 0.20146,-2.72821 0.10435,-4.18102c-3.55918,0.21768 -5.64734,0.15159 -9.34709,2.09059c0,0 -6.70821,3.3541 -10.06231,-3.35411c-3.3541,-6.70821 3.35411,-10.06231 3.35411,-10.06231c3.66125,-1.77541 7.57354,-3.28312 11.61507,-3.75529c1.69529,-0.19806 3.42062,0.14358 5.12043,-0.01095c0.16442,-0.01494 0.328,-0.03019 0.49081,-0.04568c0.54267,-3.56309 1.13339,-7.13055 1.72984,-10.71287c0,0 1.23299,-7.39795 8.63094,-6.16496c7.39796,1.23299 6.16497,8.63094 6.16497,8.63094c-0.36138,2.16615 -0.70907,4.32033 -1.04403,6.46887c1.87228,-0.3815 6.85262,-0.7993 8.7612,4.92643c2.37171,7.11513 -4.74341,9.48683 -4.74341,9.48683l-4.17034,1.28803c-0.63873,0.01189 -1.26455,0.03014 -1.88057,0.05389c0.04555,2.57521 0.46934,5.20362 0.08236,7.74432c-0.15872,1.04207 -0.82549,1.96045 -1,3c-0.01367,0.08142 -0.02721,0.16294 -0.04064,0.24453c1.55437,0.03199 3.10164,0.05411 4.63748,0.05411h3c0,0 7.5,0 7.5,7.5c0,7.5 -7.5,7.5 -7.5,7.5h-3c-2.18848,0 -4.40279,-0.05197 -6.62811,-0.11391c-0.33775,1.93757 -0.96873,3.85011 -0.96873,5.81528l-1.28803,4.17034c0,0 -2.37171,7.11513 -9.48683,4.74341z"/><path d="M411.39477,127.95934c-6.70821,-3.3541 -3.35411,-10.06231 -3.35411,-10.06231l0.59308,-1.01761c1.08688,-2.79311 0.61512,-5.62965 0.61512,-8.62829c0,-6.45694 -0.77271,-13.53566 0.0562,-19.91638c0.56338,-4.33679 1.69794,-8.63171 2.60642,-12.95983c-5.86933,1.89345 -12.0303,3.04547 -17.79091,4.99134l-4.37171,0.38487c0,0 -7.5,0 -7.5,-7.5c0,-7.5 7.5,-7.5 7.5,-7.5l-0.37171,0.38488c5.59641,-1.84481 11.16064,-2.65331 16.58628,-4.84845c0.12703,-0.05139 7.52536,-2.21154 8.48213,-3.33973c3.2509,-3.83333 5.27838,-9.30056 7.8721,-13.55542c1.3259,-2.17507 2.60436,-4.4732 3.15512,-6.9603c0,0 1.81901,-7.27607 9.09508,-5.45705c7.27607,1.81902 5.45706,9.09509 5.45706,9.09509c-1.61023,6.03831 -4.69941,10.3827 -7.70153,15.79006c-1.38944,2.50264 -2.64004,4.93388 -4.08267,7.16987c0.00813,0.14196 0.00813,0.22105 0.00813,0.22105c-0.04234,5.99537 -1.02407,12.50945 -2.12752,18.37714c-0.47941,2.54932 -1.57545,4.96939 -1.92867,7.53923c-1.43504,10.44034 1.82951,21.22984 -1.32868,31.45533l-1.40692,2.98239c0,0 -3.3541,6.70821 -10.06231,3.35411z"/><path d="M464.37716,113.13601c2.62952,-0.8765 4.61118,-0.4573 6.0647,0.41962c0.0025,-0.00922 0.00505,-0.01843 0.00765,-0.02764c0.9575,-3.39538 2.55154,-4.12086 2.85556,-7.19323c0.67766,-6.84838 -0.0562,-14.19304 -0.0562,-21.08362c0,-3.66666 0,-7.33334 0,-11c0,-3.14241 0.49017,-5.78784 -0.61512,-8.62829c0,0 -0.47318,-1.41953 -0.36277,-3.20184c-1.26015,0.08667 -2.521,0.18413 -3.78307,0.29363c-2.84868,0.24715 -5.7892,0.91767 -8.69416,1.61347c-1.96335,4.60219 -4.67462,8.91168 -6.96055,13.30835l-2.78102,2.91797c0,0 -5.3033,5.3033 -10.6066,0c-5.3033,-5.3033 0,-10.6066 0,-10.6066l1.21898,-1.08203c1.39592,-2.95274 3.32063,-5.87094 4.77253,-8.94085c-0.01469,-0.0669 -0.02888,-0.13455 -0.04257,-0.20296c-0.69088,-3.45439 0.56531,-5.61073 2.09188,-6.92632c0.24882,-3.15842 -0.23752,-6.36644 -0.23752,-9.54455c0,0 0,-7.5 7.5,-7.5c7.5,0 7.5,7.5 7.5,7.5c0,0.85105 0.00303,2.95338 -0.00033,5.23851c1.59699,-0.30394 3.18857,-0.55332 4.7613,-0.70201c10.86896,-1.02757 21.76549,-1.0365 32.73903,-1.0365c4.5869,0 13.96618,-1.14042 17.3033,2.1967c5.04084,5.04084 1.71101,14.64591 -0.5951,19.6574c-0.87463,1.67708 -1.74926,3.35415 -2.62389,5.03122l-2.78101,2.91797c0,0 -5.3033,5.3033 -10.6066,0c-5.3033,-5.3033 0,-10.6066 0,-10.6066l1.21898,-1.08203c0.45871,-0.98959 0.9174,-1.97919 1.37611,-2.96878c0.02913,-0.04899 0.05919,-0.0976 0.08999,-0.1459c-2.12726,0 -4.25452,0 -6.38178,0c-3.21888,0 -6.41971,0.01684 -9.61127,0.07086c2.0414,7.50064 1.11127,15.68543 1.11127,23.42914c0,7.41188 0.95911,15.57305 -0.0562,22.91638c-0.42692,3.08773 -2.2727,5.81405 -3.14444,8.80677c-0.23122,0.79381 0.24878,1.66423 0.10379,2.47822c-0.69075,3.87799 -2.45663,8.05134 -3.90316,11.75172v3.04692c0,4.14213 -3.35787,7.5 -7.5,7.5c-2.48494,0 -4.68761,-1.2085 -6.05237,-3.06983l-2.94763,-3.93017l0.16433,-0.12324c-0.2244,-0.20094 -0.44368,-0.40833 -0.65728,-0.62287c-2.07439,-2.08351 -2.34498,-5.39235 -3.51747,-8.08853l-1.10471,-3.29365c0,0 -2.37171,-7.11512 4.74341,-9.48683z"/><path d="M440.24887,100.25113c0,-4.57044 2.78519,-6.35569 4.96103,-7.05303c1.76785,-1.72902 3.41418,-3.10981 6.36559,-4.12516c1.63382,-0.56207 3.44892,-0.21454 5.17338,-0.32181c0,0 7.5,0 7.5,7.5c0,7.5 -7.5,7.5 -7.5,7.5c-1.32945,-0.51757 -1.62475,0.69322 -2.6967,1.8033l-6.3033,2.1967c0,0 -7.5,0 -7.5,-7.5z"/><path d="M524.24887,108.25113c0,7.5 -7.5,7.5 -7.5,7.5l-4.20137,-0.09685c-1.91387,-0.67442 -3.97134,-1.03138 -5.74162,-2.02327c-1.84476,-1.03363 -4.12571,-4.16927 -5.81193,-5.57981c-1.65476,-1.38424 -3.61028,-2.36299 -5.40534,-3.55969c0,0 -6.24037,-4.16025 -2.08012,-10.40063c4.16025,-6.24037 10.40062,-2.08012 10.40062,-2.08012c0.67925,0.45283 6.25423,4.15735 6.59466,4.44031c1.27707,1.06146 2.40624,2.29132 3.54839,3.49677c0.29152,0.30767 0.47593,0.93817 0.89806,0.90014l1.79863,-0.09685c0,0 7.5,0 7.5,7.5z"/><path d="M607.58862,109.01076c6.24037,-4.16025 10.40062,2.08012 10.40062,2.08012l0.50977,0.76465c0.72937,-4.19321 1.02756,-8.44405 2.04895,-12.70131c1.40869,-4.14174 1.09932,-7.92317 1.79775,-12.10446c0.73536,-4.40235 3.18616,-7.87577 4.0488,-12.26951c0.28,-1.42615 0.72573,-2.82419 0.89086,-4.26816c0.06413,-0.56079 -0.05354,-1.15314 -0.13526,-1.73407c-0.1363,-0.01659 -0.27051,-0.0269 -0.40124,-0.0269c-1.33334,0 -2.66666,0 -4,0c-4,0 -8,0 -12,0c-1.7148,0 -2.88813,-0.11765 -3.87295,-0.15008c-0.86963,1.0232 -1.8076,2.00828 -2.82375,2.95337c-1.22337,1.13783 -2.25613,2.59056 -3.76436,3.30926c-2.05022,0.97697 -4.40928,1.09079 -6.61392,1.63618l-2.5533,0.86638c0,0 -3.66165,1.22055 -6.60699,-0.71632c1.00683,4.41604 0.92673,9.71762 0.72078,13.06723c-0.16492,2.68236 -0.81786,5.31876 -1,8c-0.17112,2.51901 0.29732,5.07454 -0.058,7.57423c-0.36326,2.55558 -1.57439,4.92804 -2.07899,7.45951c-0.53593,2.68864 -0.54399,5.46196 -1.03431,8.15928c-0.2633,1.44848 -0.89336,2.87086 -0.8142,4.34094l-3.0055,2.65191c0.00365,0.11419 0.0055,0.23022 0.0055,0.34809c0,7.5 -7.5,7.5 -7.5,7.5l-1.79863,-0.09685c-4.76851,1.80762 -9.82257,2.86726 -14.04111,5.83722c0,0 -6.24037,4.16025 -10.40062,-2.08013c-0.81638,-1.22458 -1.23226,-2.36905 -1.37338,-3.41771c-2.53868,-1.48279 -3.50137,-4.37082 -3.50137,-4.37082l-1.08578,-3.27481c-1.22267,-5.09618 -2.19228,-10.25471 -2.27354,-15.4783c-1.6348,-9.54306 -3.0133,-18.92293 -3.02556,-28.6186c-0.00761,-6.01769 -0.1218,-13.26192 2.9735,-18.69524c4.91554,-8.6285 16.53941,-11.10564 24.24488,-16.4625c2.42876,-1.68847 8.35714,-5.17954 7.78162,-8.84226c0,0 0,-7.5 7.5,-7.5c7.5,0 7.5,7.5 7.5,7.5c-0.06688,1.57438 0.25218,3.21381 -0.20064,4.72315c-3.32888,11.09597 -15.21815,17.63777 -24.69029,22.8514c-1.5925,0.87654 -4.72795,1.74989 -6.9617,3.133c2.47284,-0.24038 4.96999,0.07654 7.82096,-0.18867c1.23865,-0.11522 13.31101,-2.0286 14,-2c2.98039,0.12373 6.63025,-0.40519 8.9382,1.37301c-0.20533,-5.19798 5.22176,-7.007 5.22176,-7.007l3.4467,-1.13362c0.45264,-0.04863 0.91152,-0.06574 1.36912,-0.08924c0.62164,-3.58015 4.20179,-5.37022 4.20179,-5.37022c0.95466,-0.4393 1.87881,-0.96289 2.81901,-1.44215c1.90918,-3.01732 3.24984,-6.34228 3.03509,-9.84964c0,0 0,-7.5 7.5,-7.5c7.5,0 7.5,7.5 7.5,7.5c-0.06688,2.24105 0.27396,4.53191 -0.20064,6.72315c-0.13402,0.61881 -0.36309,1.20511 -0.63572,1.77685c3.77878,0 7.55757,0 11.33636,0c3.37153,0 9.75144,-0.19061 11.75491,1.69994c2.59959,2.45305 2.92654,6.57338 3.70858,10.06103c1.15041,5.13049 -0.7576,13.2794 -2.36945,18.17306c-0.66367,2.01492 -2.4887,3.65559 -2.6909,5.76734c-0.45594,4.76196 -0.68082,9.25335 -2.20225,13.89554c-1.15949,4.31803 -1.04126,8.76563 -1.79775,13.10446c-0.26846,1.53978 -1.72399,4.93584 -1.95935,6.71501c-0.62715,4.74087 1.76143,8.38178 -4.29857,12.54042c-3.32049,2.27866 -8.23465,3.67688 -11.90968,2.03003c-1.87365,-0.83962 -5.31603,-12.18471 -7.47592,-15.32658l-2,-3c0,0 -4.16025,-6.24037 2.08012,-10.40063zM566.74887,109.75113h-2c-3.62312,-0.19508 -7.66694,1.89288 -11.18098,2.77607c0,0 -1.52274,0.38068 -3.34915,0.09714c0.04228,3.80222 0.75436,7.89268 1.73103,11.52988l0.42204,1.25806c4.19586,-1.82802 8.57014,-3.14349 13.07275,-4.53254c0.04219,-0.06235 0.08521,-0.12346 0.129,-0.18335c0.41377,-3.71143 1.14679,-7.5573 1.8268,-10.94504c0.00309,-0.01538 0.00621,-0.03074 0.00936,-0.0461c-0.40998,0.04588 -0.66084,0.04588 -0.66084,0.04588zM549.92986,97.97506c5.08357,-1.26311 9.53282,-3.10208 14.81902,-3.22393h2c0,0 1.21123,0 2.66018,0.48676c0.25627,-2.15351 0.69712,-4.28933 0.85431,-6.45279c0.10359,-1.42572 -0.17947,-2.8856 -0.16737,-4.31127c-1.09588,0.06696 -2.21927,0.04946 -3.28646,0.20192c-2.50878,0.3584 -5.00475,0.83144 -7.52899,1.05651c-2.00846,0.17909 -4.1531,0.61784 -6.06495,0.01333c-0.0708,0.2224 -0.16817,0.4421 -0.22635,0.6658c0,0 -2.10731,3.16097 -5.57204,3.48371c0.17304,2.93091 0.46884,5.84125 0.83756,8.74582c0.94232,-0.48265 1.67509,-0.66585 1.67509,-0.66585z"/><path d="M609.864,95.62284c-2.37171,7.11513 -9.48684,4.74342 -9.48684,4.74342l-3.92342,-1.37776c-2.4687,-1.62593 -4.89666,-3.36532 -7.00817,-5.43407c0,0 -5.3033,-5.3033 0,-10.6066c5.3033,-5.3033 10.6066,0 10.6066,0c0.91264,0.94509 1.91044,1.81981 2.99183,2.56593l2.07658,0.62224c0,0 7.11513,2.37171 4.74342,9.48683z"/><path d="M681.04067,110.89703c3.3541,-6.70821 10.06231,-3.35411 10.06231,-3.35411l5.03122,2.62389c0.46667,0.45367 0.91958,0.88724 1.35886,1.30664c-0.11342,-2.17525 -0.42687,-4.42985 -0.14734,-6.42368c0.3602,-2.56928 1.70832,-4.95359 1.93966,-7.53767c0.40229,-4.49375 0.42327,-9.00253 1.06034,-13.46233c0.14906,-1.0435 0.84987,-1.95665 1,-3c0.20021,-1.39137 -0.26727,-2.84489 0.03848,-4.21694c0.44362,-1.99072 1.59051,-3.76497 2.1756,-5.71879c2.13893,-7.14268 2.68908,-14.48583 2.68908,-21.8629c0,0 0,-7.5 7.5,-7.5c7.5,0 7.5,7.5 7.5,7.5c0,8.79863 -0.75585,17.63569 -3.31092,26.1371c-0.4465,1.4856 -1.48898,2.76666 -1.8244,4.28121c-0.27268,1.23126 0.21547,2.53445 0.03848,3.78306c-0.14794,1.04366 -0.85092,1.95651 -1,3c-0.59009,4.13035 -0.48829,8.37975 -0.93966,12.53767c-0.31332,2.88622 -1.63661,5.59024 -2.06034,8.46233c-0.47735,3.23551 0.49891,6.7244 0,10c-0.29455,1.93388 -0.9708,3.84363 -0.90315,5.79864c0,0.84512 0.02305,6.98121 -0.09685,7.20137c-1.86273,3.4207 -3.31655,8.92634 -7.20179,9.20179c-12.71586,0.90151 -9.44425,-7.99921 -12.58124,-13.46017c-0.92345,-1.60756 -2.72333,-2.51958 -4.00545,-3.85867l-2.96878,-1.37611c0,0 -6.70821,-3.3541 -3.35411,-10.06231z"/><path d="M664.8172,96.7419c-0.68637,2.18267 -2.46406,5.00923 -7.06833,5.00923c-7.5,0 -7.5,-7.5 -7.5,-7.5l2.1967,-6.3033c4.53357,-4.53357 8.46113,-9.46112 13,-14c0,0 5.3033,-5.3033 10.6066,0c5.3033,5.3033 0,10.6066 0,10.6066c-3.93624,3.93624 -7.41564,8.16949 -11.23497,12.18747z"/><path d="M772.24887,99.25113c0,7.5 -7.5,7.5 -7.5,7.5l-3.91638,-0.0562c-6.38064,-1.54761 -11.93787,-4.08484 -17.95375,-6.51471c-2.16188,-0.8732 -4.53083,-1.232 -6.61068,-2.28575c-1.22523,-0.62076 -2.34797,-2.8608 -3.5192,-2.14334c0,0 -7.5,0 -7.5,-7.5c0,-7.5 7.5,-7.5 7.5,-7.5c1.79057,0.12829 3.68699,-0.23506 5.37171,0.38487c1.93235,0.71106 3.26303,2.55986 5.10909,3.47178c1.69016,0.83491 3.63636,1.02081 5.38932,1.71425c4.71208,1.86401 9.09033,4.16999 14.04625,5.48529l2.08362,-0.0562c0,0 7.5,0 7.5,7.5z"/><path d="M805.36462,38.92109c2.05191,2.67813 4.13284,5.65035 6.02425,8.73886c0.53026,-0.28359 1.02817,-0.59045 1.44687,-0.94934l2.41399,-1.20699c1.21593,-0.64017 2.60094,-1.00248 4.07056,-1.00248c2.1941,0 4.19959,0.80757 5.73543,2.14169c3.61149,2.05772 5.29091,6.06951 1.60167,11.49971c-2.09365,3.08164 -5.29985,3.48385 -7.85183,5.29072c3.06133,7.8455 5.9979,16.46122 6.26474,24.53217c0.18058,5.46201 -0.81273,9.44409 -1.28571,14.5807c-0.5621,6.1045 -1.56332,14.32294 -4.52833,19.88235c-4.45934,8.36126 -16.66294,20.76837 -27.54265,18.04843c-11.45224,-2.86306 -21.72108,-20.2577 -16.04955,-31.60077c3.24222,-6.48444 15.72559,-10.22976 18.95722,-0.53485c1.00328,3.00983 -0.33668,6.89757 -2.55097,9.1697c-0.32137,0.32977 1.36677,2.84986 1.40404,2.91122c0.47451,0.78118 0.69434,2.64699 1.52957,2.27576c0.69885,-0.31061 1.28062,-0.83838 1.89134,-1.2987c1.16901,-0.88114 2.74822,-1.62894 3.7551,-2.77463c0.54814,-0.62371 2.12716,-2.41851 2.51494,-3.30714c6.56641,-15.04744 4.33579,-27.93933 0.36278,-42.45643c-1.16768,0.43197 -2.32134,0.79442 -3.43751,1.07345c-3.62291,0.90573 -11.89345,3.93897 -15.14526,0.68716c-6.72077,-6.72076 -4.64238,-14.73588 4.375,-16.40625c2.34439,-0.43427 4.51797,-0.98359 6.57599,-1.69237c-1.05898,-1.63719 -2.09915,-3.25603 -3.01575,-4.87155c-0.29344,-0.51719 -0.78726,-1.15199 -1.29372,-1.81227c-0.16691,-0.2009 -0.325,-0.40939 -0.47368,-0.62488c-0.78212,-1.05215 -1.44945,-2.09586 -1.26566,-2.76978c-0.18094,-0.70096 -0.27719,-1.43595 -0.27719,-2.19344c0,-4.83249 3.91751,-8.75 8.75,-8.75c0.78193,-0.6054 2.25247,-0.04154 3.65107,0.7958c1.08232,0.49762 2.04566,1.20965 2.83561,2.08167c0.28801,0.25389 0.48603,0.44902 0.55765,0.54249z"/><path d="M862.11941,81.01899c2.31294,4.11181 1.53472,11.14615 1.09375,15.52714c-0.19735,1.96063 0.80042,3.75727 -1.09375,5.65144c-2.07844,2.07845 -4.71689,4.375 -7.65625,4.375c-2.93936,0 -5.57781,-2.29655 -7.65625,-4.375c-1.06294,-1.06293 -0.84497,-2.89252 -1.09375,-4.375c-0.26241,-1.56374 -0.20665,-11.08664 0,-12.42857c0,-0.46689 0.03656,-0.92524 0.10699,-1.37234c0.65853,-4.18056 4.27741,-7.37766 8.64301,-7.37766c2.8475,0 5.37732,1.36017 6.97517,3.46626c0.26079,0.26938 0.49039,0.56974 0.68108,0.90874z"/><path d="M889.35456,104.73109c-1.13804,0.6089 -2.58533,0.05528 -3.86613,0.21478c-1.21647,0.15149 -3.93647,0.84688 -4.9384,0.27435c-6.24137,-3.5665 -4.68941,-17.13664 -4.40831,-21.54052v0c0,-0.23929 0.00961,-0.47634 0.02845,-0.71079c0.36176,-4.50007 4.12835,-8.03921 8.72155,-8.03921c3.19355,0 5.98752,1.71087 7.51533,4.26605c0.45465,0.5908 0.77562,1.34371 0.98468,2.39874c0.16337,0.66826 0.25,1.36662 0.25,2.08521c0.25848,4.1139 1.98838,17.69373 -4.28717,21.05138z"/><g><path d="M870.69749,47.50259c1.35899,-2.13556 5.16817,-4.26197 7.46735,-5.21432c8.22647,-3.40751 13.22129,-7.108 23.09904,-4.63857c2.12881,0.5322 3.65888,3.522 4.58709,5.41987c2.77709,5.67815 4.33713,10.92947 3.64791,17.46728c-1.05335,9.99171 -9.72448,11.05677 -16.40625,4.375c-1.06294,-1.06294 -0.92197,-2.88163 -1.09375,-4.375c-0.20723,-1.80158 1.75198,-5.41341 -0.06129,-5.44004c-2.43756,-0.03579 -5.13836,2.25543 -7.71453,4.30825c-0.91991,1.06226 -2.09134,1.90074 -3.42166,2.42284c-0.98987,0.38849 -2.06772,0.6018 -3.19538,0.6018c-3.12518,0 -5.8677,-1.6384 -7.41546,-4.10311c-0.81902,-0.91976 -1.30384,-1.9756 -1.21148,-3.17627c-0.08092,-0.47814 -0.12306,-0.96945 -0.12306,-1.47062c0,-1.2313 0.25434,-2.4032 0.71333,-3.46603c0.27165,-0.98295 0.62688,-1.92336 1.12815,-2.71108z"/><path d="M850.12147,61.50594c-0.65094,-0.42006 -2.06495,-2.13906 -1.86153,-1.39153c1.30178,4.78373 1.61154,9.89059 -5.17265,12.15198c-2.78853,0.92951 -6.01781,-0.41484 -8.64686,-1.72937c-1.86023,-0.93011 -2.76064,-4.85021 -3.30457,-6.71812c-2.40508,-8.25916 -2.58179,-17.04501 3.4359,-23.47629c7.26077,-7.75979 17.92695,2.17323 24.05837,5.85207l0.86231,0.43115c1.38188,0.65507 2.56474,1.66156 3.43319,2.90403c0.99157,1.41861 1.57324,3.14487 1.57324,5.00699c0,4.63034 -3.59661,8.42064 -8.14856,8.72965c-0.95108,1.01367 -4.91751,-0.91434 -6.22884,-1.76056z"/></g></g><g fill="#fcc5ea" stroke="#fcc5ea" stroke-width="7.5" stroke-linecap="round"><path d="M865.3648,118.53534l5.08895,-4.68778"/><path d="M875.74686,118.99374l-4.82824,-4.95588"/></g></g></svg>