<svg version="1.1" xmlns="http://www.w3.org/2000/svg" xmlns:xlink="http://www.w3.org/1999/xlink" width="186.41668" height="186.41668" viewBox="0,0,186.41668,186.41668"><g transform="translate(-446.79166,-866.79166)"><g stroke-miterlimit="10"><g stroke="none" stroke-width="0.5" stroke-linecap="butt"><path d="M446.79166,960c0,-51.47747 41.73086,-93.20834 93.20834,-93.20834c51.47747,0 93.20834,41.73086 93.20834,93.20834c0,51.47747 -41.73086,93.20834 -93.20834,93.20834c-51.47747,0 -93.20834,-41.73087 -93.20834,-93.20834z" fill="#fcfcfc"/><path d="M459.79166,960c0,-44.29778 35.91056,-80.20834 80.20834,-80.20834c44.29778,0 80.20834,35.91056 80.20834,80.20834c0,44.29778 -35.91056,80.20834 -80.20834,80.20834c-44.29778,0 -80.20834,-35.91056 -80.20834,-80.20834z" fill="#fcc5ea"/></g><path d="M531.47154,923.48819l45.87435,92.16574" fill="none" stroke="#ffffff" stroke-width="15" stroke-linecap="round"/><path d="M543.5359,910.35144c0,8.8675 -10.26932,16.05602 -22.93718,16.05602c-12.66785,0 -22.93718,-7.18853 -22.93718,-16.05602c0,-8.8675 10.26932,-16.05602 22.93718,-16.05602c12.66785,0 22.93718,7.18853 22.93718,16.05602z" fill="#ffffff" stroke="none" stroke-width="0" stroke-linecap="butt"/><path d="M516.39346,913.09693c0,0 -10.4059,15.48988 -13.10896,22.12407c-1.33876,3.28574 2.60051,9.52857 2.0653,13.20752c-0.59822,4.11211 -4.94517,10.20351 -4.94517,10.20351" fill="none" stroke="#ffffff" stroke-width="15" stroke-linecap="round"/><path d="M510.68437,912.28702c0,0 -15.64292,10.17439 -20.72916,15.2191c-2.51909,2.49852 -1.34073,9.78564 -3.27456,12.96076c-2.16152,3.54895 -8.54758,7.4502 -8.54758,7.4502" fill="none" stroke="#ffffff" stroke-width="15" stroke-linecap="round"/><path d="M518.7239,912.15002c0,0 -1.26673,18.61759 -0.29052,25.71449c0.4835,3.51491 7.01643,6.95169 8.39242,10.40534c1.538,3.86029 0.81917,11.30909 0.81917,11.30909" fill="none" stroke="#ffffff" stroke-width="15" stroke-linecap="round"/></g></g></svg>