<svg version="1.1" xmlns="http://www.w3.org/2000/svg" xmlns:xlink="http://www.w3.org/1999/xlink" width="100.85018" height="98.57002" viewBox="0,0,100.85018,98.57002"><g transform="translate(-489.57492,-910.715)"><g stroke="#000000" stroke-miterlimit="10"><g><path d="M547.58119,1009.28502c-23.66203,0 -42.84384,-18.75712 -42.84384,-41.8953c0,-2.03388 -16.33977,-23.9728 -15.09473,-33.40631c1.04692,-7.15063 24.72717,-0.7772 29.84274,-1.42025c12.58061,-2.5929 14.11579,-7.06874 28.09586,-7.06874c4.08592,0 9.15381,-18.20412 15.71871,-14.20544c12.14212,7.39574 27.12517,41.08244 27.12517,56.10069c0,23.13818 -19.18187,41.8953 -42.84384,41.8953z" fill="#fcb1e3" stroke-width="0"/><path d="M548.11539,964.60244c-4.465,0 -8.08463,-3.6196 -8.08463,-8.08466c0,-4.46503 3.6196,-8.08463 8.08463,-8.08463c4.46506,0 8.08463,3.61956 8.08463,8.08463c0,4.46506 -3.61956,8.08466 -8.08463,8.08466z" fill="#000000" stroke-width="1.5"/><path d="M579.07826,945.68553z" fill="#000000" stroke-width="0"/><path d="M584.74138,948.2903c0,4.31744 -0.69966,5.4838 -5.0171,5.4838c-2.15869,0 -2.9463,-1.10839 -4.36098,-2.52302c-1.41464,-1.41464 -2.52299,-3.13566 -2.52299,-5.29439c0,-4.31744 -0.23376,-5.48382 4.08371,-5.48382c4.31744,0 7.81734,3.49997 7.81734,7.81741z" fill="#000000" stroke-width="1.5"/></g></g></g></svg>