<svg version="1.1" xmlns="http://www.w3.org/2000/svg" xmlns:xlink="http://www.w3.org/1999/xlink" width="186.41668" height="186.41668" viewBox="0,0,186.41668,186.41668"><g transform="translate(-446.79166,-866.79166)"><g stroke-miterlimit="10"><g stroke="none" stroke-width="0.5" stroke-linecap="butt"><path d="M446.79166,960c0,-51.47747 41.73086,-93.20834 93.20834,-93.20834c51.47747,0 93.20834,41.73086 93.20834,93.20834c0,51.47747 -41.73086,93.20834 -93.20834,93.20834c-51.47747,0 -93.20834,-41.73087 -93.20834,-93.20834z" fill="#fcfcfc"/><path d="M459.79166,960c0,-44.29778 35.91056,-80.20834 80.20834,-80.20834c44.29778,0 80.20834,35.91056 80.20834,80.20834c0,44.29778 -35.91056,80.20834 -80.20834,80.20834c-44.29778,0 -80.20834,-35.91056 -80.20834,-80.20834z" fill="#fcc5ea"/></g><path d="M552.82397,960c0,9.7888 -16.94439,17.72418 -37.84634,17.72418c-20.90195,0 -37.84634,-7.93538 -37.84634,-17.72418c0,-9.7888 16.94439,-17.72418 37.84634,-17.72418c20.90196,0 37.84634,7.93538 37.84634,17.72418z" fill="#ffffff" stroke="none" stroke-width="0" stroke-linecap="butt"/><path d="M595.67478,960c0,9.7888 -26.53687,17.72418 -59.27175,17.72418c-32.73488,0 -59.27175,-7.93538 -59.27175,-17.72418c0,-9.7888 26.53687,-17.72418 59.27175,-17.72418c32.73488,0 59.27175,7.93538 59.27175,17.72418z" fill="#ffffff" stroke="none" stroke-width="0" stroke-linecap="butt"/><path d="M514.97763,977.72418v-35.44836h25.02238v35.44836z" fill="#ffffff" stroke="none" stroke-width="0" stroke-linecap="butt"/><path d="M597.57231,960c0,13.24366 -4.29444,23.97977 -9.59191,23.97977c-5.29747,0 -9.59191,-10.73611 -9.59191,-23.97977c0,-13.24366 4.29444,-23.97977 9.59191,-23.97977c5.29747,0 9.59191,10.73611 9.59191,23.97977z" fill="#ffffff" stroke="none" stroke-width="0" stroke-linecap="butt"/><path d="M486.63979,954.97467l4.1704,3.33632" fill="none" stroke="#000000" stroke-width="0.5" stroke-linecap="round"/><path d="M490.39314,953.93207l-3.33632,4.79595" fill="none" stroke="#000000" stroke-width="0.5" stroke-linecap="round"/></g></g></svg>