<svg version="1.1" xmlns="http://www.w3.org/2000/svg" xmlns:xlink="http://www.w3.org/1999/xlink" width="107.51685" height="107.51685" viewBox="0,0,107.51685,107.51685"><g transform="translate(-486.24158,-906.24158)"><g stroke-miterlimit="10"><g fill="#fcf1fb" stroke="none" stroke-linecap="butt"><path d="M486.24158,960c0,-29.68992 24.06851,-53.75842 53.75842,-53.75842c29.68992,0 53.75842,24.06851 53.75842,53.75842c0,29.68992 -24.06851,53.75842 -53.75842,53.75842c-29.68992,0 -53.75842,-24.06851 -53.75842,-53.75842z" stroke-width="0.5"/><path d="M521.94286,923.97455c0,9.42069 -8.35294,17.05767 -18.65683,17.05767c-7.1638,0 -13.16678,11.18247 -15.42924,3.13599c-0.9917,-3.52698 -0.2958,-26.25136 -0.2958,-29.12229c0,-9.42069 -0.97408,-7.76536 9.32842,-7.596c32.42556,0.53305 25.05346,7.10394 25.05346,16.52462z" stroke-width="0"/><path d="M583.86014,907.44993c10.30249,-0.16936 9.32842,-1.82469 9.32842,7.596c0,2.87093 0.6959,25.59531 -0.2958,29.12229c-2.26247,8.04648 -8.26545,-3.13599 -15.42924,-3.13599c-10.30389,0 -18.65683,-7.63699 -18.65683,-17.05767c0,-9.42069 -7.3721,-15.99157 25.05346,-16.52462z" stroke-width="0"/></g><g fill="none" stroke="#ffffff" stroke-width="7.5" stroke-linecap="round"><path d="M540.24135,974.24061l4.10293,2.53416"/><path d="M539.75865,974.24061l-4.10293,2.53416"/></g><path d="M531.76625,949.90807c0,4.1634 -1.95974,7.53849 -4.37719,7.53849c-2.41745,0 -4.37719,-3.37509 -4.37719,-7.53849c0,-4.1634 1.95974,-7.53849 4.37719,-7.53849c2.41745,0 4.37719,3.37509 4.37719,7.53849z" fill="#ffffff" stroke="none" stroke-width="0" stroke-linecap="butt"/><path d="M557.15136,949.90807c0,4.1634 -1.95974,7.53849 -4.37719,7.53849c-2.41745,0 -4.37719,-3.37509 -4.37719,-7.53849c0,-4.1634 1.95974,-7.53849 4.37719,-7.53849c2.41745,0 4.37719,3.37509 4.37719,7.53849z" fill="#ffffff" stroke="none" stroke-width="0" stroke-linecap="butt"/><g fill="none" stroke="#ffffff" stroke-width="7.5" stroke-linecap="round"><path d="M512.81444,973.66637h-10.98137"/><path d="M515.27693,981.97561l-10.35533,3.65482"/><path d="M504.9216,961.46096l10.35533,3.65482"/></g><g fill="none" stroke="#ffffff" stroke-width="7.5" stroke-linecap="round"><path d="M579.66693,973.66637h-10.98137"/><path d="M576.5784,985.63043l-10.35533,-3.65482"/><path d="M566.22307,965.11578l10.35533,-3.65482"/></g></g></g></svg>