<svg version="1.1" xmlns="http://www.w3.org/2000/svg" xmlns:xlink="http://www.w3.org/1999/xlink" width="186.41668" height="186.41668" viewBox="0,0,186.41668,186.41668"><g transform="translate(-446.79166,-866.79166)"><g stroke="none" stroke-miterlimit="10"><g fill="#fcfcfc"><path d="M446.79166,960c0,-51.47747 41.73086,-93.20834 93.20834,-93.20834c51.47747,0 93.20834,41.73086 93.20834,93.20834c0,51.47747 -41.73086,93.20834 -93.20834,93.20834c-51.47747,0 -93.20834,-41.73087 -93.20834,-93.20834z" stroke-width="0.5"/><path d="M446.79166,1053.20834v-186.41668h93.20834v186.41668z" stroke-width="0"/></g><g fill="#fcc5ea"><path d="M459.79169,960.00002c0,-44.29778 35.91056,-80.20834 80.20834,-80.20834c44.29778,0 80.20834,35.91056 80.20834,80.20834c0,44.29778 -35.91056,80.20834 -80.20834,80.20834c-44.29778,0 -80.20834,-35.91056 -80.20834,-80.20834z" stroke-width="0.5"/><path d="M446.79167,1040.20836v-160.41668h93.20834v160.41668z" stroke-width="0"/></g></g></g></svg>