<svg version="1.1" xmlns="http://www.w3.org/2000/svg" xmlns:xlink="http://www.w3.org/1999/xlink" width="186.41668" height="186.41668" viewBox="0,0,186.41668,186.41668"><g transform="translate(-446.79166,-866.79166)"><g stroke="none" stroke-miterlimit="10"><g stroke-width="0.5"><path d="M446.79166,960c0,-51.47747 41.73086,-93.20834 93.20834,-93.20834c51.47747,0 93.20834,41.73086 93.20834,93.20834c0,51.47747 -41.73086,93.20834 -93.20834,93.20834c-51.47747,0 -93.20834,-41.73087 -93.20834,-93.20834z" fill="#fcfcfc"/><path d="M459.79166,960c0,-44.29778 35.91056,-80.20834 80.20834,-80.20834c44.29778,0 80.20834,35.91056 80.20834,80.20834c0,44.29778 -35.91056,80.20834 -80.20834,80.20834c-44.29778,0 -80.20834,-35.91056 -80.20834,-80.20834z" fill="#fcc5ea"/></g><g fill="#ffffff" stroke-width="0"><path d="M585.59406,960c0,25.1809 -20.41316,45.59406 -45.59406,45.59406c-25.1809,0 -45.59406,-20.41316 -45.59406,-45.59406c0,-25.1809 20.41316,-45.59406 45.59406,-45.59406c25.1809,0 45.59406,20.41316 45.59406,45.59406z"/><path d="M528.73993,1018.38554v-116.77107h22.52014v116.77107z"/><path d="M490.29705,992.63857l83.70349,-81.41996l15.70242,16.14282l-83.70348,81.41996z"/><path d="M598.41081,971.12819l-116.77077,0.2637l-0.05086,-22.52008l116.77078,-0.2637z"/><path d="M574.00053,1008.78139l-83.70348,-81.41996l15.70242,-16.14282l83.70349,81.41996z"/></g><path d="M514.56282,960c0,-14.04856 11.38861,-25.43718 25.43718,-25.43718c14.04856,0 25.43718,11.38861 25.43718,25.43718c0,14.04856 -11.38861,25.43718 -25.43718,25.43718c-14.04856,0 -25.43718,-11.38861 -25.43718,-25.43718z" fill="#fcc5ea" stroke-width="0.5"/></g></g></svg>