<svg version="1.1" xmlns="http://www.w3.org/2000/svg" xmlns:xlink="http://www.w3.org/1999/xlink" width="186.41668" height="186.41668" viewBox="0,0,186.41668,186.41668"><g transform="translate(-446.79166,-866.79166)"><g stroke-miterlimit="10"><g stroke="none" stroke-width="0.5" stroke-linecap="butt"><path d="M446.79166,960c0,-51.47747 41.73086,-93.20834 93.20834,-93.20834c51.47747,0 93.20834,41.73086 93.20834,93.20834c0,51.47747 -41.73086,93.20834 -93.20834,93.20834c-51.47747,0 -93.20834,-41.73087 -93.20834,-93.20834z" fill="#fcfcfc"/><path d="M459.79166,960c0,-44.29778 35.91056,-80.20834 80.20834,-80.20834c44.29778,0 80.20834,35.91056 80.20834,80.20834c0,44.29778 -35.91056,80.20834 -80.20834,80.20834c-44.29778,0 -80.20834,-35.91056 -80.20834,-80.20834z" fill="#fcc5ea"/></g><g><path d="M590.9678,934.05312l-101.93559,51.89376" fill="none" stroke="#ffffff" stroke-width="15" stroke-linecap="round"/><path d="M550.91515,909.9671c0.53404,4.95185 -9.14424,118.84628 -13.2518,119.49008c-4.10756,0.64381 -5.729,-115.70122 -6.26304,-120.65307c-0.32255,-2.99087 -4.26862,-10.79545 -1.13399,-14.42814c1.00427,-1.16383 3.79795,-3.74604 6.42788,-3.8333c2.75225,-0.09132 5.33953,2.33767 6.17133,2.2073c4.10756,-0.64381 7.51558,12.26528 8.04962,17.21713z" fill="#ffffff" stroke="none" stroke-width="0.5" stroke-linecap="butt"/><path d="M514.4415,925.44003c0.76987,3.84324 1.26437,93.79716 -1.90936,94.59316c-3.17372,0.796 -12.69848,-90.27699 -13.46835,-94.12022c-0.46499,-2.32128 -4.11149,-8.15835 -1.91237,-11.22792c0.70455,-0.98342 2.71097,-3.20548 4.76605,-3.46045c2.15066,-0.26683 4.35082,1.4534 4.99352,1.29221c3.17372,-0.796 6.76065,9.08 7.53051,12.92324z" fill="#ffffff" stroke="none" stroke-width="0.5" stroke-linecap="butt"/><path d="M582.09041,916.26768c-0.07486,3.77496 -18.31068,88.48756 -21.46134,88.57647c-3.15066,0.08891 6.82404,-87.55361 6.8989,-91.32857c0.04521,-2.28004 -2.17115,-8.52842 0.53547,-10.95845c0.86714,-0.77853 3.21632,-2.45145 5.20231,-2.26403c2.07836,0.19613 3.79019,2.27157 4.42821,2.25356c3.15066,-0.08891 4.47131,9.94607 4.39645,13.72103z" fill="#ffffff" stroke="none" stroke-width="0.5" stroke-linecap="butt"/></g></g></g></svg>